# xmcd
#
# Track frame offsets:
#	150
#	11422
#	26281
#	38952
#	57774
#	70459
#	89608
#	111507
#	130740
#	148680
#	165848
#	179398
#	195760
#	207660
#	221870
#
# Disc length: 3034 seconds
#
# Revision: 1
# Processed by: cddbd v1.5.2PL0 Copyright (c) Steve Scherf et al.
# Submitted via: audiograbber 1.83.01
#
DISCID=d60bd80f
DTITLE=Spoor - Eindelijk Thuis
DYEAR=2009
DGENRE=
TTITLE0=Eindelijk thuis
TTITLE1=Daar hoef je toch niet voor naar het buitenland
TTITLE2=Je eigenwijze wijze
TTITLE3=Ik mis je
TTITLE4=Om het even
TTITLE5=Bejaardenhuis
TTITLE6=De winters van weleer
TTITLE7=Vergroeid
TTITLE8=De echte man die vist
TTITLE9=Onder deze wilgen
TTITLE10=Drank
TTITLE11=Je bent te mooi voor mij
TTITLE12=Erop of eronder
TTITLE13=In het raster van de tijd
TTITLE14=Eindelijk thuis (reprise
EXTD=
EXTT0=
EXTT1=
EXTT2=
EXTT3=
EXTT4=
EXTT5=
EXTT6=
EXTT7=
EXTT8=
EXTT9=
EXTT10=
EXTT11=
EXTT12=
EXTT13=
EXTT14=
PLAYORDER=
